<?xml version="1.0" encoding="UTF-8"?>
<svg id="_圖層_1" data-name="圖層_1" xmlns="http://www.w3.org/2000/svg" viewBox="0 0 821.14 199.75">
  <defs>
    <style>
      .cls-1 {
        fill: #00c;
      }

      .cls-2 {
        fill: #900;
      }

      .cls-3 {
        fill: #ff4e00;
      }

      .cls-4 {
        fill: #c00;
      }

      .cls-5 {
        fill: #d3a559;
      }

      .cls-6 {
        fill: #009;
      }

      .cls-7 {
        fill: #ffbc00;
      }

      .cls-8 {
        fill: #000dff;
      }

      .cls-9 {
        fill: #a68c5c;
      }
    </style>
  </defs>
  <g>
    <g>
      <path class="cls-7" d="M80.33,86.5l7.65-43.36h0c-19.9,0-36.92,14.28-40.37,33.88l-13.62,77.25s.01,0,.02,0l5.98-33.89c3.45-19.59,20.47-33.87,40.35-33.88Z"/>
      <path class="cls-8" d="M74.35,120.39l5.98-33.89c-19.89.01-36.9,14.29-40.35,33.88l-5.98,33.89c19.89-.01,36.9-14.29,40.35-33.88Z"/>
      <path class="cls-8" d="M216.62,76.97c-3.45,19.59-20.47,33.87-40.35,33.88l5.98-33.89c.43-2.43,1.07-4.78,1.9-7.04-.84,2.27-1.48,4.64-1.92,7.1l-13.62,77.25c19.9,0,36.92-14.28,40.37-33.88l13.62-77.25s0,0-.01,0l-5.97,33.83Z"/>
      <path class="cls-8" d="M222.58,43.14v-.06c-17.41,0-32.62,10.96-38.45,26.84,5.85-15.85,21.05-26.78,38.45-26.78Z"/>
      <path class="cls-7" d="M176.27,110.84c19.89-.01,36.9-14.29,40.35-33.88l5.97-33.83c-17.4,0-32.6,10.93-38.45,26.78-.83,2.25-1.47,4.6-1.9,7.04l-5.98,33.89Z"/>
      <path class="cls-7" d="M181.17,43.14h-19.53c-9.24,0-17.82,4.79-22.67,12.66l-2.36,3.83,9.27,40.76,35.3-57.25Z"/>
      <path class="cls-7" d="M78.25,154.27h19.53c9.24,0,17.82-4.79,22.67-12.66l.28-.46-9.27-40.76-33.22,53.88Z"/>
      <path class="cls-8" d="M145.87,100.39l-25.13,40.76,2.98,13.12h1.02c17.1,0,29.77-15.88,25.97-32.55l-4.85-21.33Z"/>
      <path class="cls-8" d="M132.85,43.14h-1.02c-17.1,0-29.77,15.88-25.97,32.54l5.62,24.71,25.13-40.76-3.75-16.49Z"/>
      <polygon class="cls-3" points="136.6 59.63 111.47 100.39 120.74 141.15 145.87 100.39 136.6 59.63"/>
    </g>
    <g>
      <path class="cls-1" d="M260.61,98.56c2.16-.12,4.65-.29,7.48-.49,2.83-.2,5.83-.44,9-.71s6.31-.52,9.44-.77l-.84,5.11c-4.47.41-8.94.81-13.42,1.2-4.48.39-8.44.77-11.87,1.14l.23-5.48ZM278.7,73.55l4.6,1.85c-1.47,1.56-3.15,3-5.04,4.31-1.9,1.31-3.92,2.46-6.06,3.45-2.14.99-4.31,1.85-6.49,2.59-.23-.78-.6-1.64-1.11-2.59-.51-.94-1.08-1.72-1.71-2.34,1.97-.49,3.95-1.08,5.91-1.75,1.97-.68,3.81-1.48,5.54-2.4,1.72-.92,3.18-1.96,4.37-3.11ZM263.81,88.15h24.21l-.8,4.56h-24.21l.8-4.56ZM264.44,93.63l4.68-1.05c.29.66.54,1.43.73,2.31.19.88.28,1.63.25,2.25l-4.96,1.23c.08-.7.05-1.49-.1-2.37-.15-.88-.35-1.67-.6-2.37ZM268.79,82.24h16.32l-.74,4.19h-16.32l.74-4.19ZM298.67,45.53l5.29,3.2c-2.79,2.09-5.97,3.96-9.52,5.6-3.55,1.64-7.28,3.08-11.17,4.31-3.89,1.23-7.72,2.26-11.48,3.08-.25-.9-.67-1.94-1.24-3.11s-1.2-2.17-1.87-2.99c3.55-.57,7.18-1.34,10.9-2.28,3.72-.94,7.25-2.08,10.58-3.42,3.34-1.33,6.17-2.8,8.51-4.4ZM270.48,69.18h47.37l-.93,5.3h-47.37l.93-5.3ZM274,84.45h5.85l-2.59,14.66h-5.85l2.58-14.66ZM275.22,61.85h39.6l-.83,4.68h-39.6l.82-4.68ZM277.3,79.4l3.2-4.19c1.03.45,2.14.97,3.33,1.54,1.19.58,2.3,1.18,3.31,1.82,1.02.64,1.85,1.24,2.48,1.82l-3.28,4.62c-.64-.58-1.46-1.2-2.47-1.88-1.01-.68-2.09-1.34-3.25-2-1.16-.66-2.27-1.23-3.33-1.72ZM281.6,92.4l4.56,1.05c-.72,1.07-1.37,2.05-1.94,2.96-.57.9-1.11,1.73-1.61,2.46l-3.89-.98c.48-.86,1-1.8,1.54-2.8.55-1.01.99-1.9,1.34-2.68ZM278.92,67.39l6.27-1.29c.36.53.64,1.15.84,1.85s.34,1.33.4,1.91l-6.59,1.41c-.03-.53-.13-1.17-.31-1.91-.18-.74-.38-1.39-.61-1.97ZM284.35,55.81h23.71l-.78,4.43h-23.71l.78-4.43ZM287.98,97.45h29.01l-.97,5.48h-29.01l.97-5.48ZM305.67,73.61l4.83,1.97c-1.56,1.6-3.35,3.07-5.4,4.4-2.04,1.34-4.22,2.51-6.53,3.51-2.31,1.01-4.68,1.86-7.1,2.56-.24-.74-.62-1.56-1.14-2.46-.52-.9-1.07-1.66-1.66-2.28,2.14-.49,4.27-1.1,6.39-1.82s4.1-1.57,5.93-2.56c1.84-.98,3.4-2.09,4.68-3.32ZM291.77,58.09h7.64l-2.44,13.86h-7.64l2.44-13.86ZM290.17,88.15h27.29l-.81,4.62h-27.29l.81-4.62ZM290.05,93.69l5.22-1.29c.33.66.6,1.41.81,2.25.2.84.35,1.57.45,2.19l-5.51,1.54c-.05-.62-.17-1.37-.33-2.28-.17-.9-.38-1.7-.62-2.4ZM295.15,82.24h18.05l-.74,4.19h-18.05l.74-4.19ZM300.81,48.73c4.82,2.01,9.25,3.43,13.29,4.25,4.04.82,7.35,1.38,9.93,1.66-.96.78-1.96,1.77-3.02,2.96-1.05,1.19-1.88,2.32-2.47,3.39-2.58-.49-5.88-1.39-9.88-2.68-4-1.29-8.65-3.38-13.93-6.25l6.07-3.32ZM300.74,84.08h6.4l-2.64,14.97h-6.41l2.64-14.97ZM303.3,66.1l6.55,1.29c-.82.9-1.56,1.69-2.24,2.37-.67.68-1.27,1.3-1.78,1.88l-5.06-1.35c.41-.7.86-1.43,1.34-2.19.48-.76.88-1.43,1.18-2ZM307.81,75.77c2.09,1.44,4.23,2.54,6.44,3.3s4.32,1.36,6.33,1.82c-.84.58-1.7,1.32-2.58,2.24-.88.93-1.6,1.8-2.16,2.62-2.13-.74-4.3-1.73-6.53-2.99-2.22-1.25-4.47-2.91-6.73-4.96l5.22-2.03ZM309.38,92.4l5.03,1.17c-.77,1.11-1.5,2.16-2.19,3.14-.69.98-1.33,1.87-1.92,2.65l-4.23-1.17c.52-.86,1.1-1.84,1.75-2.93.64-1.09,1.16-2.04,1.55-2.87Z"/>
      <path class="cls-1" d="M331.71,61.79h7.58l-2.23,12.63c-.38,2.13-.86,4.5-1.47,7.08s-1.34,5.24-2.2,7.95c-.87,2.71-1.89,5.35-3.06,7.91-1.17,2.57-2.52,4.9-4.04,6.99-.33-.45-.83-.99-1.5-1.63-.67-.64-1.37-1.26-2.1-1.88-.73-.62-1.35-1.05-1.84-1.3,1.75-2.46,3.18-5.17,4.3-8.13,1.11-2.96,2.01-5.94,2.68-8.93s1.22-5.71,1.65-8.13l2.22-12.57ZM331.13,49.34h26.73l-1.17,6.65h-26.73l1.17-6.65ZM350.89,78.42h6.34l-.72,4.06c-.29,1.64-.81,3.42-1.56,5.33-.75,1.91-1.92,3.82-3.5,5.73-1.59,1.91-3.76,3.73-6.51,5.45-2.75,1.72-6.27,3.25-10.56,4.56-.27-.78-.7-1.68-1.28-2.71-.58-1.03-1.12-1.85-1.63-2.46,3.75-1.03,6.82-2.22,9.19-3.57s4.2-2.76,5.49-4.22c1.28-1.46,2.23-2.9,2.83-4.34.6-1.44,1.01-2.77,1.23-4l.67-3.82ZM335.9,61.79h48.54l-1.21,6.84h-48.54l1.21-6.84ZM334.84,91.54c1.06-1.36,2.15-2.89,3.27-4.59s2.23-3.48,3.31-5.33c1.09-1.85,2.04-3.59,2.86-5.23l5.82.86c-.89,1.81-1.9,3.66-3.02,5.57-1.12,1.91-2.24,3.72-3.36,5.45-1.13,1.72-2.2,3.27-3.22,4.62l-5.67-1.35ZM334.84,91.54l5.19-3.57c1.75.78,3.54,1.7,5.36,2.77,1.82,1.07,3.57,2.12,5.23,3.17,1.66,1.05,3.06,2,4.18,2.87l-5.34,4.06c-1.11-.95-2.47-1.98-4.1-3.11-1.63-1.13-3.36-2.24-5.2-3.33-1.84-1.09-3.61-2.04-5.32-2.86ZM337.02,80.27h22.61l-.95,5.36h-22.61l.95-5.36ZM338.94,70.78h20.7l-1.01,5.73h-20.7l1.01-5.73ZM344.61,46.27h7.95l-2.29,13h-7.95l2.29-13ZM374,70.66l6.68,1.6c-3.12,6.53-6.83,12.49-11.13,17.89-4.3,5.4-8.93,9.8-13.88,13.21-.29-.45-.7-1.01-1.24-1.7-.54-.68-1.09-1.34-1.65-2s-1.05-1.17-1.48-1.54c4.75-2.96,9.06-6.83,12.92-11.61,3.86-4.78,7.12-10.07,9.79-15.86ZM359.9,49.34h26.73l-1.17,6.65h-26.73l1.17-6.65ZM362.57,60.06h7.51c-.62,3.74-1.09,7.39-1.41,10.97-.32,3.57-.47,6.92-.45,10.04.02,3.12.16,5.87.42,8.25.26,2.38.64,4.25,1.14,5.6.5,1.35,1.12,2.03,1.86,2.03.49,0,1.01-.75,1.57-2.25s1.14-3.79,1.77-6.87c.68.78,1.54,1.52,2.57,2.22,1.03.7,1.98,1.23,2.86,1.6-.93,3.41-1.89,6.03-2.89,7.85-1,1.83-2.13,3.08-3.37,3.76s-2.72,1.02-4.4,1.02c-1.97,0-3.57-.81-4.81-2.43-1.23-1.62-2.18-3.87-2.85-6.75-.66-2.87-1.07-6.19-1.23-9.95-.16-3.76-.08-7.77.25-12.04.32-4.27.81-8.62,1.47-13.06ZM365.93,46.27h8.01l-2.29,13h-8.01l2.29-13ZM372.23,59.38l5.34-4.06c.92.62,1.89,1.38,2.93,2.28,1.03.9,1.81,1.7,2.35,2.4l-5.66,4.5c-.48-.78-1.2-1.65-2.16-2.62-.96-.96-1.89-1.8-2.79-2.49Z"/>
      <path class="cls-1" d="M402.26,93.82l6.74,3.33c-1.86.99-3.99,1.95-6.39,2.89-2.4.94-4.84,1.82-7.3,2.62-2.46.8-4.81,1.47-7.04,2-.35-.58-.81-1.23-1.38-1.97-.57-.74-1.16-1.47-1.77-2.19-.62-.72-1.19-1.3-1.73-1.75,2.28-.33,4.58-.74,6.9-1.23,2.33-.49,4.53-1.06,6.61-1.7,2.08-.63,3.86-1.3,5.34-2ZM393.36,69.55c-.07-.53-.23-1.16-.47-1.88-.24-.72-.52-1.43-.82-2.12-.31-.7-.63-1.23-.98-1.6.73-.41,1.48-1.02,2.26-1.82.78-.8,1.28-1.88,1.52-3.23l1.69-9.61h7.83l-2.41,13.67c-1.09.62-2.06,1.17-2.88,1.66-.83.49-1.67,1.04-2.54,1.63-.86.6-1.59,1.18-2.19,1.76-.59.58-.93,1.09-1.01,1.54ZM396.63,68.81h41.76l-4.42,25.07h-41.76l4.42-25.07ZM393.36,69.55l.43-5.91,3.27-2.1,14.46-3.08c-.13.94-.23,2.02-.32,3.23s-.12,2.19-.09,2.93c-3.42.78-6.2,1.44-8.33,1.97-2.13.54-3.8.99-5.01,1.36s-2.15.67-2.81.89c-.66.23-1.19.46-1.6.71ZM415.45,46.27l2.26,6.03c-2.05.45-4.26.85-6.62,1.2-2.36.35-4.73.63-7.11.83-2.38.21-4.64.37-6.8.49.06-.82.01-1.76-.15-2.8-.16-1.05-.34-1.96-.53-2.74,2.13-.2,4.33-.46,6.61-.77,2.27-.31,4.48-.65,6.62-1.02,2.14-.37,4.05-.78,5.73-1.23ZM401.32,86.92l-.39,2.22h25.62l.39-2.22h-25.62ZM402.49,80.27l-.38,2.15h25.62l.38-2.15h-25.62ZM403.66,73.61l-.37,2.09h25.62l.37-2.09h-25.62ZM406.36,56.24l6.51-1.97c.71,1.11,1.35,2.34,1.94,3.7.58,1.35,1.1,2.69,1.54,4,.45,1.32.74,2.5.88,3.57l-7.05,2.28c-.1-1.07-.33-2.27-.69-3.6-.36-1.34-.82-2.69-1.38-4.07-.56-1.37-1.14-2.68-1.74-3.91ZM427.11,50.7h7.02c-.71,2.87-1.63,5.47-2.76,7.79-1.13,2.32-2.74,4.35-4.83,6.1-2.09,1.75-4.95,3.19-8.56,4.34-.1-.57-.33-1.23-.67-1.97-.34-.74-.71-1.47-1.12-2.19-.41-.72-.82-1.3-1.23-1.75,2.89-.78,5.1-1.74,6.64-2.89,1.54-1.15,2.7-2.52,3.49-4.1.79-1.58,1.46-3.36,2.02-5.33ZM417.44,97.82l5.83-4.43c1.9.66,3.83,1.38,5.81,2.16,1.98.78,3.85,1.55,5.63,2.31,1.77.76,3.26,1.45,4.47,2.06l-7.51,4.5c-1.04-.62-2.33-1.3-3.86-2.06-1.53-.76-3.18-1.55-4.94-2.37-1.76-.82-3.58-1.54-5.44-2.16ZM420.37,48.73h21.43l-1.1,6.22h-21.43l1.1-6.22ZM439.4,48.73h7.64c-.28,1.35-.47,2.24-.59,2.65-.7,2.79-1.34,5.13-1.91,7.02s-1.12,3.4-1.63,4.53c-.51,1.13-1.05,1.96-1.64,2.49-.74.7-1.47,1.19-2.2,1.48-.73.29-1.52.49-2.36.62-.76.12-1.72.2-2.87.22-1.15.02-2.38.01-3.69-.03.13-.99.14-2.11.01-3.39-.12-1.27-.37-2.36-.75-3.26.93.08,1.78.14,2.55.18.77.04,1.36.06,1.78.06.82,0,1.47-.19,1.94-.56.3-.33.62-.88.94-1.66.32-.78.7-1.94,1.14-3.48.43-1.54.93-3.52,1.48-5.94l.16-.92Z"/>
      <path class="cls-1" d="M465.6,70.66l7.38,2.53c-1.93,2.55-4.11,4.99-6.56,7.33s-4.98,4.49-7.6,6.44-5.21,3.65-7.76,5.08c-.36-.53-.85-1.17-1.48-1.91-.63-.74-1.27-1.48-1.92-2.22-.65-.74-1.23-1.31-1.73-1.73,3.71-1.72,7.34-3.96,10.89-6.71,3.54-2.75,6.47-5.69,8.79-8.81ZM469.78,80.14l7.29,2.34c-1.98,2.83-4.24,5.54-6.79,8.1-2.55,2.57-5.23,4.9-8.04,6.99-2.81,2.09-5.63,3.92-8.45,5.48-.32-.53-.78-1.17-1.39-1.91-.61-.74-1.23-1.47-1.86-2.19-.63-.72-1.22-1.3-1.75-1.75,4.1-1.85,8.02-4.27,11.75-7.27,3.73-3,6.81-6.26,9.24-9.79ZM462.05,48.85h41.02l-4.49,25.44h-41.02l4.49-25.44ZM460.87,77.56h35.79l-1.26,7.14h-35.79l1.26-7.14ZM482.27,80.57l7.37,1.85c-2.41,4.6-5.29,8.86-8.63,12.78-3.34,3.92-6.8,7.15-10.37,9.7-.37-.45-.89-1-1.56-1.63-.67-.64-1.36-1.26-2.07-1.88-.71-.62-1.34-1.13-1.88-1.54,3.45-2.09,6.66-4.84,9.65-8.25,2.98-3.41,5.48-7.08,7.49-11.02ZM467.29,64.56l-.57,3.2h24.64l.56-3.2h-24.64ZM468.92,55.32l-.56,3.2h24.64l.56-3.2h-24.64ZM494.87,77.56h8.31c-.18.78-.33,1.42-.46,1.91-.13.49-.26.9-.4,1.23-1.24,4.43-2.35,8.08-3.34,10.93-1,2.85-1.92,5.1-2.76,6.74-.85,1.64-1.68,2.81-2.5,3.51-.93.86-1.86,1.47-2.78,1.82s-1.91.56-2.95.65c-.93.12-2.07.2-3.43.22-1.36.02-2.81.01-4.37-.03.14-1.03.14-2.2,0-3.51-.14-1.32-.43-2.44-.88-3.39,1.25.12,2.41.19,3.47.22s1.86.03,2.4.03.97-.05,1.32-.15c.34-.1.71-.32,1.1-.65.53-.45,1.15-1.35,1.86-2.71.71-1.35,1.49-3.31,2.36-5.85.86-2.55,1.81-5.81,2.84-9.79l.21-1.17Z"/>
      <path class="cls-1" d="M535.44,46.2l8.16,1.91c-2.24,4.52-4.81,9-7.73,13.46-2.92,4.46-6.2,8.6-9.83,12.44s-7.64,7.13-12.03,9.89c-.3-.62-.71-1.32-1.23-2.09-.52-.78-1.05-1.55-1.59-2.31-.54-.76-1.06-1.41-1.54-1.94,2.97-1.73,5.76-3.78,8.35-6.16,2.6-2.38,4.97-4.98,7.13-7.79,2.16-2.81,4.1-5.7,5.84-8.65,1.73-2.96,3.22-5.87,4.47-8.75ZM524.23,65.42h8.25l-2.91,16.51c-.33,1.89-.79,3.89-1.37,6-.58,2.12-1.34,4.21-2.28,6.28-.94,2.07-2.11,4.03-3.5,5.85-1.39,1.83-3.07,3.46-5.05,4.9-.23-.58-.63-1.28-1.23-2.13s-1.21-1.66-1.85-2.46c-.64-.8-1.21-1.39-1.72-1.75,2.07-1.52,3.68-3.21,4.84-5.08,1.15-1.87,2-3.81,2.57-5.82.56-2.01,1.01-3.98,1.35-5.91l2.89-16.39ZM515.37,53.53h55.25l-1.35,7.64h-55.25l1.35-7.64ZM525.49,85.87h27.23l-1.19,6.77h-27.23l1.19-6.77ZM527.4,75.77h27.1l-1.2,6.77h-27.1l1.2-6.77ZM528.79,65.42h26.67l-1.26,7.15h-26.67l1.26-7.15ZM553.74,65.42h7.95l-5.35,30.37c-.34,1.93-.84,3.48-1.5,4.65-.66,1.17-1.7,2.08-3.13,2.74-1.41.58-3.04.93-4.87,1.08-1.83.14-3.98.22-6.44.22.03-1.11-.06-2.43-.25-3.97-.2-1.54-.48-2.82-.83-3.85.98.04,1.98.07,3,.09,1.02.02,1.94.03,2.76.03h1.79c.49,0,.86-.08,1.09-.25.24-.16.39-.45.46-.86l5.33-30.24Z"/>
      <path class="cls-1" d="M579.06,48.61h14.78l-1.28,7.27h-7.64l-8.53,48.35h-7.14l9.81-55.62ZM592.43,48.61h1.36l1.15-.25,4.84,2.96c-1.24,2.63-2.57,5.4-3.99,8.31-1.42,2.92-2.77,5.56-4.05,7.95,1.39,2.38,2.15,4.64,2.29,6.77.14,2.13.05,4.11-.27,5.91-.37,2.09-.89,3.83-1.57,5.2-.67,1.38-1.61,2.46-2.82,3.23-.56.37-1.17.67-1.82.89s-1.32.4-2,.52c-.59.08-1.22.13-1.9.15-.68.02-1.39.03-2.13.03.17-.98.23-2.15.16-3.51s-.28-2.53-.64-3.51c.48.04.93.07,1.34.09.41.02.78.01,1.11-.03.62,0,1.17-.14,1.68-.43.38-.29.71-.74.98-1.35.27-.62.49-1.36.64-2.22.25-1.39.29-3.05.13-4.96-.16-1.91-.87-3.91-2.14-6.01.65-1.35,1.32-2.84,2.02-4.47.69-1.62,1.38-3.25,2.06-4.9.68-1.64,1.3-3.17,1.86-4.59.56-1.42,1-2.58,1.32-3.48l.41-2.34ZM592.21,104.66c-.1-.62-.27-1.32-.52-2.13-.25-.8-.53-1.59-.84-2.37-.31-.78-.64-1.4-.97-1.85.74-.45,1.53-1.14,2.37-2.06.84-.93,1.39-2.13,1.65-3.61l7.76-43.98h7.95l-8.58,48.66c-1.1.66-2.07,1.24-2.9,1.75-.83.51-1.69,1.1-2.59,1.76-.9.66-1.65,1.31-2.26,1.97-.61.65-.96,1.27-1.06,1.85ZM592.21,104.66l.51-7.08,3.65-2.52,13.6-2.71c-.24,1.15-.46,2.44-.65,3.88-.19,1.44-.31,2.61-.34,3.51-3.13.74-5.68,1.36-7.66,1.88-1.98.51-3.57.94-4.76,1.29-1.19.35-2.11.67-2.76.96-.65.29-1.18.55-1.59.8ZM605.41,48.67h24.52l-5.07,28.77h-24.52l1.24-7.02h16.57l2.61-14.78h-16.57l1.23-6.96ZM604.09,59.69h20.45l-1.15,6.53h-20.45l1.15-6.53ZM614.31,73.3c.16,3.53.66,6.86,1.51,9.98.84,3.12,2.13,5.87,3.84,8.25,1.71,2.38,3.93,4.27,6.64,5.67-.67.53-1.43,1.21-2.27,2.03-.84.82-1.65,1.67-2.42,2.55-.77.88-1.45,1.7-2.03,2.43-2.92-1.85-5.24-4.23-6.96-7.15-1.73-2.91-2.97-6.28-3.73-10.1-.77-3.82-1.22-7.98-1.37-12.5l6.8-1.17ZM623.1,77.62l4.28,5.79c-1.26.86-2.57,1.75-3.92,2.65-1.35.9-2.68,1.75-3.99,2.53-1.31.78-2.51,1.46-3.59,2.03l-3.36-5.05c1.01-.62,2.16-1.38,3.45-2.28s2.57-1.86,3.83-2.86c1.27-1.01,2.36-1.94,3.3-2.8Z"/>
      <path class="cls-1" d="M654.14,47.56l8.66,2.95c-2.07,3.37-4.43,6.74-7.08,10.1-2.65,3.37-5.37,6.53-8.17,9.48-2.8,2.96-5.5,5.52-8.1,7.7-.43-.62-1-1.37-1.72-2.28-.72-.9-1.47-1.79-2.24-2.65-.77-.86-1.48-1.56-2.13-2.09,2.5-1.85,5.02-4.01,7.55-6.5,2.53-2.49,4.93-5.16,7.21-8.04,2.27-2.87,4.28-5.77,6.03-8.69ZM636.02,102.5c-.1-.62-.24-1.46-.42-2.53-.18-1.07-.39-2.18-.61-3.33-.23-1.15-.48-2.13-.74-2.96,1.12-.29,2.21-.82,3.27-1.6s2.31-1.85,3.74-3.2c.81-.65,1.95-1.74,3.41-3.26,1.46-1.52,3.12-3.35,4.97-5.48,1.85-2.14,3.73-4.44,5.63-6.93,1.89-2.48,3.64-4.98,5.23-7.48l8.96,4.01c-2.59,3.49-5.38,6.92-8.37,10.28-3,3.37-6.04,6.55-9.14,9.55s-6.11,5.71-9.04,8.13l-.03.19c-1.31.66-2.41,1.22-3.32,1.69-.9.47-1.7.96-2.39,1.48-.69.51-1.07.99-1.15,1.45ZM636.02,102.5l.93-7.02,5.88-2.96,35.52-2.34c-.05,1.23-.02,2.61.1,4.13.12,1.52.24,2.75.37,3.7-5.71.49-10.66.91-14.85,1.26-4.19.35-7.75.63-10.68.86-2.93.23-5.38.44-7.35.65-1.97.2-3.56.39-4.78.55-1.22.16-2.23.34-3.02.52-.79.18-1.5.4-2.12.65ZM666,47.74h12.69l-1.49,8.44h-12.69l1.49-8.44ZM666.57,82.24l8.65-3.63c1.29,2.26,2.55,4.68,3.8,7.27s2.42,5.11,3.5,7.58,1.95,4.66,2.59,6.59l-9.3,4.56c-.52-1.93-1.29-4.2-2.31-6.81-1.02-2.6-2.14-5.28-3.36-8.01-1.22-2.73-2.41-5.25-3.57-7.55ZM672.16,47.74h9.61c.38,2.75,1.07,5.48,2.1,8.19,1.02,2.71,2.36,5.22,4,7.51,1.65,2.3,3.61,4.23,5.88,5.79-.72.58-1.56,1.37-2.54,2.37s-1.93,2.03-2.85,3.08-1.69,2-2.29,2.87c-2.34-2.09-4.39-4.55-6.16-7.36-1.76-2.81-3.2-5.77-4.32-8.87-1.12-3.1-1.95-6.13-2.49-9.08h-1.73l.79-4.5Z"/>
      <path class="cls-1" d="M701.92,72.5h8.01l-4.54,25.75h-8.01l4.54-25.75ZM700.9,61.48h36.28l-1.25,7.08h-36.28l1.25-7.08ZM702.33,49.9h45.64l-1.37,7.76h-45.64l1.37-7.76ZM709.12,72.5h23.16l-3.76,21.31h-23.16l1.24-7.02h15.15l1.28-7.27h-15.15l1.24-7.02ZM745.2,49.9h8.38l-7.84,44.47c-.4,2.26-.96,4.04-1.68,5.36-.73,1.32-1.83,2.34-3.31,3.08-1.48.7-3.24,1.14-5.28,1.32-2.05.19-4.46.26-7.25.22.06-.82.05-1.76-.02-2.83-.08-1.07-.22-2.15-.41-3.23-.2-1.09-.42-2-.66-2.74,1.1.04,2.22.08,3.37.12,1.14.04,2.18.05,3.1.03.93-.02,1.6-.03,2.01-.03.57,0,.99-.1,1.26-.31.26-.2.44-.59.54-1.17l7.81-44.29Z"/>
    </g>
    <g>
      <path class="cls-1" d="M258.04,154.31l10.47-14.63-5.03-13.83h6.97l1.59,5.52c.21.66.42,1.37.61,2.11.19.74.42,1.56.7,2.45h.15c.49-.89.95-1.71,1.39-2.45.44-.74.86-1.44,1.25-2.11l3.35-5.52h6.63l-9.92,14.1,5.4,14.37h-6.94l-1.87-5.94c-.23-.71-.45-1.46-.66-2.24-.21-.78-.44-1.6-.69-2.47h-.15c-.51.87-.99,1.69-1.45,2.47-.46.78-.92,1.53-1.37,2.24l-3.81,5.94h-6.63Z"/>
      <path class="cls-1" d="M287.42,154.31l5.02-28.46h6.24l-5.02,28.46h-6.24Z"/>
      <path class="cls-1" d="M302.36,154.31l5.02-28.46h6.36l5.12,14.4,1.73,6.24h.19c.09-1.51.2-3.17.33-5,.13-1.83.34-3.58.64-5.27l1.83-10.38h5.94l-5.02,28.46h-6.36l-5.07-14.48-1.75-6.13h-.19c-.14,1.53-.27,3.19-.38,4.98s-.31,3.52-.61,5.21l-1.84,10.42h-5.94Z"/>
      <path class="cls-1" d="M346.5,154.31l-.31-28.46h6.36l-.34,13.44c-.06,1.48-.11,2.98-.16,4.48-.05,1.51-.12,3.03-.21,4.56h.15c.58-1.53,1.14-3.05,1.69-4.56.55-1.51,1.1-3,1.67-4.48l5.44-13.44h5.32l.77,13.44c.02,1.46.04,2.95.06,4.46.01,1.52.04,3.04.07,4.58h.19c.45-1.53.9-3.05,1.36-4.56.46-1.51.92-3,1.38-4.48l4.44-13.44h5.94l-10.11,28.46h-7.85l-.54-13.22c-.04-1.1-.06-2.2-.07-3.31,0-1.11.02-2.2.08-3.28h-.15c-.37,1.07-.75,2.17-1.15,3.28-.4,1.11-.8,2.22-1.2,3.31l-5.13,13.22h-7.7Z"/>
      <path class="cls-1" d="M381.28,154.31l5.02-28.46h17.74l-.92,5.21h-11.49l-1.05,5.94h9.73l-.92,5.25h-9.73l-1.2,6.82h11.91l-.93,5.25h-18.16Z"/>
      <path class="cls-1" d="M407.06,154.31l5.02-28.46h6.24l-5.02,28.46h-6.24Z"/>
      <path class="cls-1" d="M438.21,154.31l4.1-23.25h-7.85l.92-5.21h21.99l-.92,5.21h-7.85l-4.1,23.25h-6.28Z"/>
      <path class="cls-1" d="M458.82,154.31l5.02-28.46h10.15c2.02,0,3.8.27,5.36.8,1.55.54,2.7,1.44,3.44,2.72.75,1.28.92,3.04.52,5.29-.38,2.15-1.17,3.91-2.39,5.29s-2.7,2.39-4.46,3.03c-1.76.64-3.65.96-5.67.96h-3.91l-1.83,10.38h-6.24ZM467.76,138.98h3.37c1.74,0,3.12-.37,4.16-1.11,1.04-.74,1.68-1.81,1.93-3.22.26-1.46-.02-2.46-.83-3.01-.81-.55-2.08-.82-3.82-.82h-3.37l-1.44,8.16ZM474.22,154.31l-4.29-11.99,5-4.02,6.26,16.01h-6.97Z"/>
      <path class="cls-1" d="M483.11,154.31l13.98-28.46h7.43l3.95,28.46h-6.55l-1.27-14.52c-.15-1.46-.28-2.98-.38-4.58s-.21-3.13-.34-4.62h-.15c-.62,1.51-1.27,3.05-1.95,4.64-.67,1.58-1.33,3.1-1.97,4.56l-6.39,14.52h-6.36ZM490.15,147.37l.85-4.83h13.64l-.85,4.83h-13.64Z"/>
      <path class="cls-1" d="M513.6,154.31l5.02-28.46h7.97c2.91,0,5.34.5,7.28,1.51,1.94,1.01,3.31,2.55,4.11,4.62.8,2.07.91,4.73.34,7.97s-1.62,5.93-3.15,8.06c-1.52,2.13-3.42,3.71-5.68,4.75-2.26,1.04-4.79,1.55-7.57,1.55h-8.31ZM520.74,149.25h1.34c1.63,0,3.12-.3,4.47-.9,1.35-.6,2.48-1.58,3.4-2.95.92-1.36,1.58-3.19,1.98-5.46.41-2.3.39-4.1-.06-5.42-.45-1.32-1.24-2.25-2.38-2.81-1.14-.56-2.53-.84-4.16-.84h-1.34l-3.24,18.39Z"/>
      <path class="cls-1" d="M543.18,154.31l5.02-28.46h6.24l-5.02,28.46h-6.24Z"/>
      <path class="cls-1" d="M558.12,154.31l5.02-28.46h6.36l5.12,14.4,1.73,6.24h.19c.09-1.51.2-3.17.33-5,.13-1.83.34-3.58.64-5.27l1.83-10.38h5.94l-5.02,28.46h-6.36l-5.07-14.48-1.75-6.13h-.19c-.14,1.53-.27,3.19-.38,4.98s-.31,3.52-.61,5.21l-1.84,10.42h-5.94Z"/>
      <path class="cls-1" d="M601.43,154.85c-2.6,0-4.85-.56-6.73-1.67-1.89-1.11-3.26-2.75-4.11-4.92s-1-4.85-.44-8.04c.41-2.35,1.15-4.44,2.2-6.28s2.32-3.4,3.81-4.67c1.49-1.28,3.12-2.25,4.9-2.91,1.77-.67,3.62-1,5.54-1,2.07,0,3.77.38,5.11,1.13,1.34.75,2.39,1.6,3.17,2.55l-4,3.99c-.6-.66-1.27-1.21-2.03-1.65-.75-.43-1.75-.65-3.01-.65-1.48,0-2.86.37-4.14,1.11-1.28.74-2.37,1.81-3.26,3.2-.9,1.39-1.52,3.06-1.86,5-.35,1.97-.34,3.66,0,5.08.35,1.42,1.07,2.5,2.15,3.24,1.08.74,2.52,1.11,4.31,1.11.61,0,1.21-.08,1.8-.23.59-.15,1.09-.37,1.49-.65l.9-5.09h-4.79l.91-5.13h10.34l-2.3,13.06c-1.14.94-2.59,1.76-4.36,2.43-1.77.68-3.63,1.02-5.6,1.02Z"/>
      <path class="cls-1" d="M629.37,154.31l5.02-28.46h6.24l-4.09,23.22h11.34l-.93,5.25h-17.58Z"/>
      <path class="cls-1" d="M653.89,154.31l4.1-23.25h-7.85l.92-5.21h21.99l-.92,5.21h-7.85l-4.1,23.25h-6.28Z"/>
      <path class="cls-1" d="M674.5,154.31l5.02-28.46h7.97c2.91,0,5.34.5,7.28,1.51,1.94,1.01,3.31,2.55,4.11,4.62.8,2.07.91,4.73.34,7.97s-1.62,5.93-3.15,8.06c-1.52,2.13-3.42,3.71-5.68,4.75-2.26,1.04-4.79,1.55-7.57,1.55h-8.31ZM681.64,149.25h1.34c1.63,0,3.12-.3,4.47-.9,1.35-.6,2.48-1.58,3.4-2.95.92-1.36,1.58-3.19,1.98-5.46.41-2.3.39-4.1-.06-5.42-.45-1.32-1.24-2.25-2.38-2.81-1.14-.56-2.53-.84-4.16-.84h-1.34l-3.24,18.39Z"/>
      <path class="cls-1" d="M707.05,154.85c-1.07,0-1.9-.38-2.48-1.15-.58-.77-.77-1.71-.57-2.83.2-1.13.72-2.06,1.56-2.8.84-.74,1.8-1.11,2.88-1.11s1.94.37,2.52,1.11c.58.74.78,1.67.58,2.8-.2,1.12-.72,2.07-1.57,2.83-.85.77-1.83,1.15-2.92,1.15Z"/>
      <path class="cls-1" d="M717.34,162.74l-.68-3.33c1.69-.59,3.03-1.36,4.03-2.32,1-.96,1.58-2,1.76-3.12l.63-4.21,1.45,3.52c-.38.28-.78.49-1.18.63-.41.14-.83.21-1.26.21-.99,0-1.82-.31-2.48-.94-.66-.63-.88-1.51-.68-2.66.19-1.07.73-1.94,1.62-2.59.89-.65,1.88-.98,2.95-.98,1.4,0,2.38.52,2.94,1.57.56,1.05.67,2.5.34,4.37-.41,2.35-1.43,4.38-3.05,6.09-1.62,1.71-3.75,2.96-6.39,3.76Z"/>
    </g>
  </g>
  <g>
    <path class="cls-9" d="M80.33,86.53l7.65-43.36h0c-19.9,0-36.92,14.28-40.37,33.88l-13.62,77.25s.01,0,.02,0l5.98-33.89c3.45-19.59,20.47-33.87,40.35-33.88Z"/>
    <path class="cls-8" d="M222.58,43.17v-.06c-17.41,0-32.62,10.96-38.45,26.84,5.85-15.85,21.05-26.78,38.45-26.78Z"/>
    <path class="cls-9" d="M176.27,110.88c19.89-.01,36.9-14.29,40.35-33.88l5.97-33.83c-17.4,0-32.6,10.93-38.45,26.78-.83,2.25-1.47,4.6-1.9,7.04l-5.98,33.89Z"/>
    <path class="cls-9" d="M181.17,43.17h-19.53c-9.24,0-17.82,4.79-22.67,12.66l-2.36,3.83,9.27,40.76,35.3-57.25Z"/>
    <path class="cls-9" d="M78.25,154.3h19.53c9.24,0,17.82-4.79,22.67-12.66l.28-.46-9.27-40.76-33.22,53.88Z"/>
    <g>
      <path class="cls-6" d="M74.35,120.42l5.98-33.89c-19.89.01-36.9,14.29-40.35,33.88l-5.98,33.89c19.89-.01,36.9-14.29,40.35-33.88Z"/>
      <path class="cls-6" d="M216.62,77c-3.45,19.59-20.47,33.87-40.35,33.88l5.98-33.89c.43-2.43,1.07-4.78,1.9-7.04-.84,2.27-1.48,4.64-1.92,7.1l-13.62,77.25c19.9,0,36.92-14.28,40.37-33.88l13.62-77.25s0,0-.01,0l-5.97,33.83Z"/>
      <path class="cls-6" d="M145.87,100.42l-25.13,40.76,2.98,13.12h1.02c17.1,0,29.77-15.88,25.97-32.55l-4.85-21.33Z"/>
      <path class="cls-6" d="M132.85,43.17h-1.02c-17.1,0-29.77,15.88-25.97,32.54l5.62,24.71,25.13-40.76-3.75-16.49Z"/>
    </g>
    <polygon class="cls-2" points="136.6 59.66 111.47 100.42 120.74 141.18 145.87 100.42 136.6 59.66"/>
  </g>
  <g>
    <path class="cls-5" d="M80.33,86.53l7.65-43.36h0c-19.9,0-36.92,14.28-40.37,33.88l-13.62,77.25s.01,0,.02,0l5.98-33.89c3.45-19.59,20.47-33.87,40.35-33.88Z"/>
    <path class="cls-8" d="M222.58,43.17v-.06c-17.41,0-32.62,10.96-38.45,26.84,5.85-15.85,21.05-26.78,38.45-26.78Z"/>
    <path class="cls-5" d="M176.27,110.88c19.89-.01,36.9-14.29,40.35-33.88l5.97-33.83c-17.4,0-32.6,10.93-38.45,26.78-.83,2.25-1.47,4.6-1.9,7.04l-5.98,33.89Z"/>
    <path class="cls-5" d="M181.17,43.17h-19.53c-9.24,0-17.82,4.79-22.67,12.66l-2.36,3.83,9.27,40.76,35.3-57.25Z"/>
    <path class="cls-5" d="M78.25,154.3h19.53c9.24,0,17.82-4.79,22.67-12.66l.28-.46-9.27-40.76-33.22,53.88Z"/>
    <g>
      <path class="cls-1" d="M74.35,120.42l5.98-33.89c-19.89.01-36.9,14.29-40.35,33.88l-5.98,33.89c19.89-.01,36.9-14.29,40.35-33.88Z"/>
      <path class="cls-1" d="M216.62,77c-3.45,19.59-20.47,33.87-40.35,33.88l5.98-33.89c.43-2.43,1.07-4.78,1.9-7.04-.84,2.27-1.48,4.64-1.92,7.1l-13.62,77.25c19.9,0,36.92-14.28,40.37-33.88l13.62-77.25s0,0-.01,0l-5.97,33.83Z"/>
      <path class="cls-1" d="M145.87,100.42l-25.13,40.76,2.98,13.12h1.02c17.1,0,29.77-15.88,25.97-32.55l-4.85-21.33Z"/>
      <path class="cls-1" d="M132.85,43.17h-1.02c-17.1,0-29.77,15.88-25.97,32.54l5.62,24.71,25.13-40.76-3.75-16.49Z"/>
    </g>
    <polygon class="cls-4" points="136.6 59.66 111.47 100.42 120.74 141.18 145.87 100.42 136.6 59.66"/>
  </g>
</svg>