<?xml version="1.0" encoding="UTF-8"?>
<svg id="_圖層_1" data-name="圖層_1" xmlns="http://www.w3.org/2000/svg" viewBox="0 0 821.75 190.67">
  <defs>
    <style>
      .cls-1 {
        fill: #00c;
      }

      .cls-2 {
        fill: #900;
      }

      .cls-3 {
        fill: #c00;
      }

      .cls-4 {
        fill: #d3a559;
      }

      .cls-5 {
        fill: #009;
      }

      .cls-6 {
        fill: #000dff;
      }

      .cls-7 {
        fill: #a68c5c;
      }
    </style>
  </defs>
  <g>
    <path class="cls-7" d="M80.33,81.05l7.65-43.36h0c-19.9,0-36.92,14.28-40.37,33.88l-13.62,77.25s.01,0,.02,0l5.98-33.89c3.45-19.59,20.47-33.87,40.35-33.88Z"/>
    <path class="cls-6" d="M222.58,37.69v-.06c-17.41,0-32.62,10.96-38.45,26.84,5.85-15.85,21.05-26.78,38.45-26.78Z"/>
    <path class="cls-7" d="M176.27,105.4c19.89-.01,36.9-14.29,40.35-33.88l5.97-33.83c-17.4,0-32.6,10.93-38.45,26.78-.83,2.25-1.47,4.6-1.9,7.04l-5.98,33.89Z"/>
    <path class="cls-7" d="M181.17,37.69h-19.53c-9.24,0-17.82,4.79-22.67,12.66l-2.36,3.83,9.27,40.76,35.3-57.25Z"/>
    <path class="cls-7" d="M78.25,148.82h19.53c9.24,0,17.82-4.79,22.67-12.66l.28-.46-9.27-40.76-33.22,53.88Z"/>
    <g>
      <path class="cls-5" d="M74.35,114.95l5.98-33.89c-19.89.01-36.9,14.29-40.35,33.88l-5.98,33.89c19.89-.01,36.9-14.29,40.35-33.88Z"/>
      <path class="cls-5" d="M216.62,71.53c-3.45,19.59-20.47,33.87-40.35,33.88l5.98-33.89c.43-2.43,1.07-4.78,1.9-7.04-.84,2.27-1.48,4.64-1.92,7.1l-13.62,77.25c19.9,0,36.92-14.28,40.37-33.88l13.62-77.25s0,0-.01,0l-5.97,33.83Z"/>
      <path class="cls-5" d="M145.87,94.95l-25.13,40.76,2.98,13.12h1.02c17.1,0,29.77-15.88,25.97-32.55l-4.85-21.33Z"/>
      <path class="cls-5" d="M132.85,37.69h-1.02c-17.1,0-29.77,15.88-25.97,32.54l5.62,24.71,25.13-40.76-3.75-16.49Z"/>
    </g>
    <polygon class="cls-2" points="136.6 54.18 111.47 94.95 120.74 135.71 145.87 94.95 136.6 54.18"/>
  </g>
  <g>
    <g>
      <path class="cls-1" d="M382.3,93.13c-2.15,12.2-12.74,21.09-25.13,21.1l3.72-21.11c.27-1.52.67-2.98,1.18-4.38-.52,1.41-.92,2.89-1.19,4.42l-8.48,48.11c12.39,0,22.99-8.9,25.14-21.1l8.48-48.11s0,0,0,0l-3.71,21.07Z"/>
      <path class="cls-1" d="M357.17,114.23c12.38,0,22.98-8.9,25.13-21.1l3.71-21.07c-10.83,0-20.3,6.81-23.94,16.68-.51,1.4-.91,2.87-1.18,4.38l-3.72,21.11Z"/>
    </g>
    <path class="cls-4" d="M359.57,64.06c10.65,2.61,21.64-2.81,26.06-12.84l7.64-17.34c-9.32-2.28-18.9,1.57-24.11,9.29-.74,1.1-1.39,2.27-1.94,3.52l-7.65,17.37Z"/>
    <g>
      <path class="cls-1" d="M772.62,93.13c-2.15,12.2-12.74,21.09-25.13,21.1l3.72-21.11c.27-1.52.67-2.98,1.18-4.38-.52,1.41-.92,2.89-1.19,4.42l-8.48,48.11c12.39,0,22.99-8.9,25.14-21.1l8.48-48.11s0,0,0,0l-3.71,21.07Z"/>
      <path class="cls-1" d="M747.49,114.23c12.38,0,22.98-8.9,25.13-21.1l3.71-21.07c-10.83,0-20.3,6.81-23.94,16.68-.51,1.4-.91,2.87-1.18,4.38l-3.72,21.11Z"/>
    </g>
    <path class="cls-3" d="M749.89,64.06c10.65,2.61,21.64-2.81,26.06-12.84l7.64-17.34c-9.32-2.28-18.9,1.57-24.11,9.29-.74,1.1-1.39,2.27-1.94,3.52l-7.65,17.37Z"/>
    <path class="cls-1" d="M313.46,140.89h-11.8l-10.51-29.36-17.86,25.21c-1.84,2.6-4.84,4.15-8.02,4.15h-21.72l38.37-48.9-13.88-32.75c-2.75-6.48,2.01-13.67,9.06-13.67h11.76l9.19,26.87,15.73-22.65c1.84-2.65,4.86-4.22,8.08-4.22h21.53l-36.04,46.42,15.15,35.18c2.8,6.49-1.97,13.72-9.03,13.72Z"/>
    <path class="cls-1" d="M473.71,140.89h-12.21l-22.08-47.92-7.02,39.8c-.83,4.7-4.91,8.13-9.69,8.13h-15.16l15.38-87.2c.83-4.7,4.91-8.13,9.69-8.13h12.22l22.07,47.92,7.02-39.8c.83-4.7,4.91-8.13,9.69-8.13h15.16l-15.38,87.2c-.83,4.7-4.91,8.13-9.69,8.13Z"/>
    <path class="cls-1" d="M643.12,45.57l-40.29,89.53c-1.59,3.53-5.1,5.8-8.97,5.8h-12.8l-7.08-47.01-20.99,41.61c-1.67,3.31-5.07,5.4-8.78,5.4h-12.97l-8.34-84.53c-.57-5.79,3.97-10.8,9.79-10.8h13.67l3.54,50.34,21.62-44.78c1.64-3.4,5.08-5.56,8.86-5.56h10.43l6.49,50.34,18.82-44.35c1.54-3.63,5.11-5.99,9.05-5.99h17.94Z"/>
    <path class="cls-1" d="M705.92,140.89h-56.54l15.38-87.2c.83-4.7,4.91-8.13,9.69-8.13h56.54l-2.25,12.73c-.83,4.7-4.91,8.13-9.69,8.13h-33.13l-2.81,15.95h35.37l-2.25,12.73c-.83,4.7-4.91,8.13-9.69,8.13h-27.12l-2.96,16.8h41.39l-2.25,12.73c-.83,4.7-4.91,8.13-9.69,8.13Z"/>
  </g>
  <g>
    <path class="cls-4" d="M80.33,81.08l7.65-43.36h0c-19.9,0-36.92,14.28-40.37,33.88l-13.62,77.25s.01,0,.02,0l5.98-33.89c3.45-19.59,20.47-33.87,40.35-33.88Z"/>
    <path class="cls-6" d="M222.58,37.73v-.06c-17.41,0-32.62,10.96-38.45,26.84,5.85-15.85,21.05-26.78,38.45-26.78Z"/>
    <path class="cls-4" d="M176.27,105.43c19.89-.01,36.9-14.29,40.35-33.88l5.97-33.83c-17.4,0-32.6,10.93-38.45,26.78-.83,2.25-1.47,4.6-1.9,7.04l-5.98,33.89Z"/>
    <path class="cls-4" d="M181.17,37.73h-19.53c-9.24,0-17.82,4.79-22.67,12.66l-2.36,3.83,9.27,40.76,35.3-57.25Z"/>
    <path class="cls-4" d="M78.25,148.86h19.53c9.24,0,17.82-4.79,22.67-12.66l.28-.46-9.27-40.76-33.22,53.88Z"/>
    <g>
      <path class="cls-1" d="M74.35,114.98l5.98-33.89c-19.89.01-36.9,14.29-40.35,33.88l-5.98,33.89c19.89-.01,36.9-14.29,40.35-33.88Z"/>
      <path class="cls-1" d="M216.62,71.56c-3.45,19.59-20.47,33.87-40.35,33.88l5.98-33.89c.43-2.43,1.07-4.78,1.9-7.04-.84,2.27-1.48,4.64-1.92,7.1l-13.62,77.25c19.9,0,36.92-14.28,40.37-33.88l13.62-77.25s0,0-.01,0l-5.97,33.83Z"/>
      <path class="cls-1" d="M145.87,94.98l-25.13,40.76,2.98,13.12h1.02c17.1,0,29.77-15.88,25.97-32.55l-4.85-21.33Z"/>
      <path class="cls-1" d="M132.85,37.73h-1.02c-17.1,0-29.77,15.88-25.97,32.54l5.62,24.71,25.13-40.76-3.75-16.49Z"/>
    </g>
    <polygon class="cls-3" points="136.6 54.22 111.47 94.98 120.74 135.74 145.87 94.98 136.6 54.22"/>
  </g>
</svg>