<?xml version="1.0" encoding="UTF-8"?>
<svg id="_圖層_1" data-name="圖層_1" xmlns="http://www.w3.org/2000/svg" viewBox="0 0 257.22 205.2">
  <defs>
    <style>
      .cls-1 {
        fill: #00c;
      }

      .cls-2 {
        fill: #c00;
      }

      .cls-3 {
        fill: #d3a559;
      }

      .cls-4 {
        fill: #000dff;
      }
    </style>
  </defs>
  <path class="cls-3" d="M80.33,91.62l7.65-43.36h0c-19.9,0-36.92,14.28-40.37,33.88l-13.62,77.25s.01,0,.02,0l5.98-33.89c3.45-19.59,20.47-33.87,40.35-33.88Z"/>
  <path class="cls-4" d="M222.58,48.26v-.06c-17.41,0-32.62,10.96-38.45,26.84,5.85-15.85,21.05-26.78,38.45-26.78Z"/>
  <path class="cls-3" d="M176.27,115.97c19.89-.01,36.9-14.29,40.35-33.88l5.97-33.83c-17.4,0-32.6,10.93-38.45,26.78-.83,2.25-1.47,4.6-1.9,7.04l-5.98,33.89Z"/>
  <path class="cls-3" d="M181.17,48.26h-19.53c-9.24,0-17.82,4.79-22.67,12.66l-2.36,3.83,9.27,40.76,35.3-57.25Z"/>
  <path class="cls-3" d="M78.25,159.39h19.53c9.24,0,17.82-4.79,22.67-12.66l.28-.46-9.27-40.76-33.22,53.88Z"/>
  <g>
    <path class="cls-1" d="M74.35,125.52l5.98-33.89c-19.89.01-36.9,14.29-40.35,33.88l-5.98,33.89c19.89-.01,36.9-14.29,40.35-33.88Z"/>
    <path class="cls-1" d="M216.62,82.09c-3.45,19.59-20.47,33.87-40.35,33.88l5.98-33.89c.43-2.43,1.07-4.78,1.9-7.04-.84,2.27-1.48,4.64-1.92,7.1l-13.62,77.25c19.9,0,36.92-14.28,40.37-33.88l13.62-77.25s0,0-.01,0l-5.97,33.83Z"/>
    <path class="cls-1" d="M145.87,105.51l-25.13,40.76,2.98,13.12h1.02c17.1,0,29.77-15.88,25.97-32.55l-4.85-21.33Z"/>
    <path class="cls-1" d="M132.85,48.26h-1.02c-17.1,0-29.77,15.88-25.97,32.54l5.62,24.71,25.13-40.76-3.75-16.49Z"/>
  </g>
  <polygon class="cls-2" points="136.6 64.75 111.47 105.51 120.74 146.28 145.87 105.51 136.6 64.75"/>
</svg>