<?xml version="1.0" encoding="UTF-8"?>
<svg id="_圖層_1" data-name="圖層_1" xmlns="http://www.w3.org/2000/svg" viewBox="0 0 1080 176.15">
  <defs>
    <style>
      .cls-1 {
        fill: #00c;
      }

      .cls-2 {
        fill: #c00;
      }

      .cls-3 {
        fill: #d3a559;
      }

      .cls-4 {
        fill: #000dff;
      }
    </style>
  </defs>
  <g>
    <path class="cls-3" d="M80.33,68.5l7.65-43.36h0c-19.9,0-36.92,14.28-40.37,33.88l-13.62,77.25s.01,0,.02,0l5.98-33.89c3.45-19.59,20.47-33.87,40.35-33.88Z"/>
    <path class="cls-4" d="M222.58,25.14v-.06c-17.41,0-32.62,10.96-38.45,26.84,5.85-15.85,21.05-26.78,38.45-26.78Z"/>
    <path class="cls-3" d="M176.27,92.85c19.89-.01,36.9-14.29,40.35-33.88l5.97-33.83c-17.4,0-32.6,10.93-38.45,26.78-.83,2.25-1.47,4.6-1.9,7.04l-5.98,33.89Z"/>
    <path class="cls-3" d="M181.17,25.14h-19.53c-9.24,0-17.82,4.79-22.67,12.66l-2.36,3.83,9.27,40.76,35.3-57.25Z"/>
    <path class="cls-3" d="M78.25,136.27h19.53c9.24,0,17.82-4.79,22.67-12.66l.28-.46-9.27-40.76-33.22,53.88Z"/>
    <g>
      <path class="cls-1" d="M74.35,102.39l5.98-33.89c-19.89.01-36.9,14.29-40.35,33.88l-5.98,33.89c19.89-.01,36.9-14.29,40.35-33.88Z"/>
      <path class="cls-1" d="M216.62,58.97c-3.45,19.59-20.47,33.87-40.35,33.88l5.98-33.89c.43-2.43,1.07-4.78,1.9-7.04-.84,2.27-1.48,4.64-1.92,7.1l-13.62,77.25c19.9,0,36.92-14.28,40.37-33.88l13.62-77.25s0,0-.01,0l-5.97,33.83Z"/>
      <path class="cls-1" d="M145.87,82.39l-25.13,40.76,2.98,13.12h1.02c17.1,0,29.77-15.88,25.97-32.55l-4.85-21.33Z"/>
      <path class="cls-1" d="M132.85,25.14h-1.02c-17.1,0-29.77,15.88-25.97,32.54l5.62,24.71,25.13-40.76-3.75-16.49Z"/>
    </g>
    <polygon class="cls-2" points="136.6 41.63 111.47 82.39 120.74 123.15 145.87 82.39 136.6 41.63"/>
  </g>
  <g>
    <path class="cls-1" d="M239.21,122.88c3.6-.2,7.75-.48,12.47-.82,4.72-.34,9.72-.74,15-1.18,5.28-.45,10.53-.87,15.73-1.28l-1.4,8.52c-7.45.68-14.91,1.35-22.38,2-7.48.65-14.08,1.28-19.8,1.9l.38-9.14ZM269.36,81.18l7.67,3.08c-2.45,2.6-5.25,5-8.41,7.19-3.16,2.19-6.53,4.11-10.1,5.75-3.58,1.64-7.19,3.08-10.83,4.31-.39-1.3-1.01-2.74-1.86-4.31-.85-1.58-1.81-2.88-2.85-3.9,3.29-.82,6.58-1.8,9.86-2.93,3.28-1.13,6.36-2.46,9.23-4.01,2.87-1.54,5.3-3.27,7.28-5.19ZM244.53,105.53h40.36l-1.34,7.6h-40.36l1.34-7.6ZM245.59,114.67l7.81-1.75c.49,1.1.9,2.38,1.22,3.85.32,1.47.46,2.72.42,3.75l-8.27,2.06c.14-1.17.08-2.48-.18-3.96-.26-1.47-.59-2.79-1-3.95ZM252.84,95.67h27.22l-1.23,6.98h-27.22l1.23-6.98ZM302.66,34.45l8.81,5.34c-4.65,3.49-9.95,6.61-15.87,9.35s-12.13,5.14-18.62,7.19c-6.49,2.06-12.87,3.77-19.14,5.14-.42-1.51-1.11-3.24-2.06-5.19-.96-1.95-2-3.61-3.13-4.98,5.92-.96,11.98-2.23,18.18-3.8,6.2-1.58,12.08-3.48,17.64-5.7s10.29-4.67,14.19-7.34ZM255.65,73.89h78.98l-1.56,8.83h-78.98l1.56-8.83ZM261.53,99.36h9.76l-4.31,24.45h-9.76l4.31-24.45ZM263.56,61.67h66.04l-1.38,7.8h-66.04l1.38-7.8ZM267.03,90.94l5.34-6.98c1.71.75,3.57,1.61,5.55,2.57,1.99.96,3.83,1.97,5.53,3.03,1.69,1.06,3.08,2.07,4.14,3.03l-5.47,7.7c-1.06-.96-2.44-2-4.12-3.14-1.69-1.13-3.49-2.24-5.42-3.34-1.93-1.1-3.78-2.06-5.55-2.88ZM274.19,112.61l7.6,1.75c-1.2,1.78-2.28,3.42-3.23,4.93-.95,1.51-1.84,2.87-2.68,4.11l-6.49-1.64c.8-1.44,1.66-3,2.57-4.67.91-1.68,1.65-3.17,2.23-4.47ZM269.73,70.91l10.45-2.16c.6.89,1.07,1.92,1.41,3.08.34,1.17.57,2.23.67,3.18l-11,2.36c-.05-.89-.22-1.95-.52-3.18-.29-1.23-.63-2.33-1.01-3.29ZM278.79,51.61h39.54l-1.3,7.4h-39.54l1.3-7.4ZM284.83,121.04h48.38l-1.61,9.14h-48.38l1.61-9.14ZM314.33,81.29l8.05,3.29c-2.59,2.67-5.59,5.12-9,7.34-3.41,2.23-7.04,4.18-10.89,5.85-3.86,1.68-7.81,3.1-11.84,4.26-.4-1.23-1.03-2.6-1.9-4.11-.86-1.51-1.79-2.78-2.77-3.8,3.57-.82,7.12-1.83,10.65-3.03,3.53-1.2,6.83-2.62,9.89-4.26,3.06-1.64,5.66-3.49,7.81-5.54ZM291.16,55.4h12.74l-4.08,23.11h-12.74l4.08-23.11ZM288.49,105.53h45.5l-1.36,7.7h-45.5l1.36-7.7ZM288.29,114.77l8.7-2.16c.56,1.1,1.01,2.35,1.34,3.75.33,1.4.58,2.62.75,3.65l-9.18,2.57c-.09-1.03-.28-2.29-.56-3.8-.28-1.51-.63-2.84-1.04-4.01ZM296.8,95.67h30.09l-1.23,6.98h-30.09l1.23-6.98ZM306.24,39.79c8.04,3.36,15.43,5.72,22.17,7.09,6.74,1.37,12.26,2.29,16.56,2.77-1.6,1.3-3.28,2.95-5.03,4.93-1.75,1.99-3.13,3.87-4.13,5.65-4.31-.82-9.79-2.31-16.47-4.47-6.67-2.16-14.41-5.63-23.22-10.43l10.12-5.55ZM306.11,98.75h10.68l-4.4,24.96h-10.68l4.4-24.96ZM310.38,68.76l10.92,2.16c-1.36,1.51-2.6,2.83-3.73,3.95-1.13,1.13-2.11,2.17-2.97,3.13l-8.43-2.26c.68-1.16,1.43-2.38,2.23-3.65.8-1.27,1.46-2.38,1.98-3.34ZM317.91,84.88c3.48,2.4,7.06,4.23,10.74,5.49,3.68,1.27,7.2,2.28,10.56,3.03-1.4.96-2.84,2.21-4.31,3.75-1.47,1.54-2.67,3-3.59,4.37-3.55-1.23-7.18-2.89-10.88-4.98-3.71-2.09-7.45-4.84-11.23-8.27l8.71-3.39ZM320.51,112.61l8.39,1.95c-1.29,1.85-2.5,3.59-3.65,5.24-1.15,1.64-2.21,3.12-3.19,4.42l-7.05-1.95c.87-1.44,1.84-3.06,2.91-4.88,1.07-1.81,1.94-3.41,2.59-4.78Z"/>
    <path class="cls-1" d="M357.76,61.57h12.63l-3.71,21.06c-.63,3.56-1.44,7.5-2.44,11.81-1,4.31-2.23,8.73-3.67,13.25-1.45,4.52-3.15,8.92-5.1,13.2-1.95,4.28-4.2,8.16-6.73,11.66-.55-.75-1.39-1.66-2.5-2.72-1.12-1.06-2.28-2.11-3.51-3.13s-2.24-1.75-3.06-2.16c2.92-4.11,5.3-8.63,7.17-13.56,1.86-4.93,3.35-9.89,4.47-14.89,1.12-5,2.04-9.52,2.75-13.56l3.69-20.95ZM356.8,40.82h44.58l-1.96,11.09h-44.58l1.96-11.09ZM389.74,89.3h10.58l-1.2,6.78c-.48,2.74-1.35,5.7-2.59,8.89s-3.19,6.37-5.84,9.55c-2.65,3.19-6.26,6.21-10.85,9.09-4.58,2.87-10.45,5.41-17.62,7.6-.45-1.3-1.17-2.81-2.13-4.52-.96-1.71-1.87-3.08-2.72-4.11,6.26-1.71,11.37-3.7,15.33-5.96,3.96-2.26,7.01-4.6,9.15-7.04,2.14-2.43,3.71-4.84,4.72-7.24,1-2.4,1.69-4.62,2.05-6.68l1.12-6.37ZM364.74,61.57h80.93l-2.01,11.4h-80.93l2.01-11.4ZM362.98,111.18c1.77-2.26,3.58-4.81,5.46-7.65,1.87-2.84,3.71-5.81,5.52-8.88,1.81-3.08,3.4-5.99,4.78-8.73l9.71,1.44c-1.49,3.01-3.17,6.11-5.03,9.3-1.86,3.18-3.73,6.21-5.61,9.09-1.88,2.88-3.66,5.45-5.36,7.7l-9.46-2.26ZM362.98,111.18l8.65-5.96c2.92,1.3,5.9,2.84,8.94,4.62,3.04,1.78,5.95,3.54,8.72,5.29,2.77,1.75,5.09,3.34,6.96,4.78l-8.9,6.78c-1.84-1.58-4.12-3.31-6.84-5.19-2.72-1.88-5.61-3.73-8.68-5.55-3.07-1.81-6.02-3.41-8.86-4.78ZM366.6,92.38h37.69l-1.58,8.94h-37.69l1.58-8.94ZM369.8,76.56h34.51l-1.68,9.55h-34.51l1.68-9.55ZM379.27,35.68h13.25l-3.82,21.67h-13.25l3.82-21.67ZM428.28,76.36l11.13,2.67c-5.21,10.89-11.39,20.83-18.56,29.84-7.17,9.01-14.88,16.35-23.14,22.03-.48-.75-1.17-1.7-2.07-2.83-.9-1.13-1.81-2.24-2.75-3.34-.94-1.09-1.76-1.95-2.48-2.57,7.92-4.93,15.1-11.38,21.54-19.36,6.44-7.98,11.88-16.79,16.32-26.45ZM404.76,40.82h44.58l-1.96,11.09h-44.58l1.96-11.09ZM409.21,58.69h12.53c-1.03,6.23-1.81,12.32-2.35,18.28-.54,5.96-.79,11.54-.74,16.74.04,5.2.27,9.79.71,13.76.43,3.97,1.06,7.09,1.89,9.35.84,2.26,1.87,3.39,3.1,3.39.82,0,1.69-1.25,2.61-3.75.92-2.5,1.9-6.32,2.94-11.45,1.14,1.3,2.57,2.53,4.28,3.7,1.71,1.17,3.3,2.05,4.77,2.67-1.55,5.69-3.16,10.05-4.83,13.1-1.67,3.04-3.54,5.14-5.62,6.26-2.08,1.13-4.53,1.7-7.33,1.7-3.29,0-5.96-1.35-8.01-4.06-2.06-2.7-3.64-6.45-4.75-11.24-1.11-4.79-1.79-10.32-2.06-16.59-.27-6.26-.13-12.96.41-20.08.54-7.12,1.35-14.38,2.45-21.78ZM414.81,35.68h13.35l-3.82,21.67h-13.35l3.82-21.67ZM425.33,57.56l8.9-6.78c1.53,1.03,3.15,2.3,4.88,3.8,1.72,1.51,3.02,2.84,3.91,4.01l-9.44,7.5c-.8-1.3-2-2.76-3.59-4.37-1.6-1.61-3.15-2.99-4.66-4.16Z"/>
    <path class="cls-1" d="M475.39,114.98l11.24,5.55c-3.1,1.64-6.65,3.25-10.66,4.83-4.01,1.57-8.07,3.03-12.17,4.37-4.11,1.33-8.02,2.45-11.73,3.34-.58-.96-1.35-2.05-2.3-3.29-.95-1.23-1.93-2.45-2.95-3.65s-1.98-2.17-2.87-2.93c3.8-.55,7.63-1.23,11.51-2.05,3.88-.82,7.55-1.76,11.03-2.82,3.47-1.06,6.44-2.17,8.91-3.34ZM460.55,74.51c-.12-.89-.38-1.93-.78-3.13-.41-1.2-.86-2.38-1.38-3.54-.51-1.16-1.06-2.05-1.63-2.67,1.21-.68,2.47-1.7,3.77-3.03,1.3-1.34,2.14-3.13,2.54-5.39l2.82-16.02h13.04l-4.02,22.8c-1.83,1.03-3.43,1.95-4.8,2.77-1.37.82-2.79,1.73-4.23,2.72-1.44.99-2.66,1.97-3.65,2.93-.99.96-1.55,1.82-1.68,2.57ZM466,73.28h69.64l-7.37,41.8h-69.64l7.37-41.8ZM460.55,74.51l.71-9.86,5.44-3.49,24.12-5.13c-.21,1.58-.39,3.37-.54,5.39-.15,2.02-.2,3.65-.14,4.88-5.71,1.3-10.33,2.4-13.88,3.29-3.55.89-6.33,1.64-8.36,2.26-2.03.62-3.59,1.11-4.68,1.49-1.09.38-1.98.77-2.67,1.18ZM497.38,35.68l3.77,10.07c-3.42.75-7.1,1.42-11.03,2-3.94.58-7.89,1.04-11.85,1.39-3.96.34-7.74.62-11.34.82.1-1.37.02-2.93-.25-4.67-.27-1.75-.57-3.27-.89-4.57,3.55-.34,7.23-.77,11.01-1.29,3.79-.51,7.46-1.08,11.03-1.69,3.57-.62,6.75-1.3,9.55-2.06ZM473.83,103.47l-.65,3.7h42.73l.65-3.7h-42.73ZM475.78,92.38l-.63,3.59h42.73l.63-3.59h-42.73ZM477.74,81.29l-.62,3.49h42.73l.62-3.49h-42.73ZM482.23,52.32l10.85-3.29c1.18,1.85,2.25,3.9,3.23,6.16.97,2.26,1.83,4.49,2.57,6.68.74,2.19,1.23,4.18,1.47,5.96l-11.76,3.8c-.17-1.78-.55-3.78-1.15-6.01-.6-2.22-1.37-4.48-2.3-6.78-.93-2.29-1.9-4.47-2.91-6.52ZM516.83,43.08h11.71c-1.19,4.79-2.72,9.13-4.6,12.99-1.88,3.87-4.57,7.26-8.06,10.17-3.49,2.91-8.25,5.32-14.27,7.24-.18-.96-.55-2.05-1.12-3.29-.57-1.23-1.2-2.45-1.87-3.65-.68-1.2-1.36-2.17-2.05-2.93,4.82-1.3,8.51-2.91,11.07-4.83,2.56-1.91,4.5-4.19,5.83-6.83,1.32-2.64,2.44-5.6,3.36-8.88ZM500.72,121.65l9.73-7.4c3.16,1.1,6.39,2.3,9.69,3.6,3.3,1.3,6.43,2.59,9.39,3.85,2.96,1.27,5.45,2.41,7.46,3.44l-12.52,7.5c-1.74-1.03-3.88-2.18-6.43-3.44-2.55-1.27-5.29-2.59-8.24-3.95-2.94-1.37-5.97-2.57-9.07-3.6ZM505.6,39.79h35.74l-1.83,10.37h-35.74l1.83-10.37ZM537.33,39.79h12.74c-.47,2.26-.79,3.73-.98,4.42-1.16,4.66-2.23,8.56-3.19,11.71-.97,3.15-1.87,5.67-2.72,7.55-.84,1.88-1.76,3.27-2.74,4.16-1.23,1.17-2.46,1.99-3.67,2.47-1.22.48-2.53.82-3.93,1.03-1.27.21-2.87.33-4.79.36-1.92.04-3.98.02-6.15-.05.22-1.64.23-3.53.02-5.65-.21-2.12-.63-3.94-1.25-5.45,1.55.14,2.97.24,4.26.31,1.29.07,2.28.1,2.96.1,1.37,0,2.45-.31,3.25-.92.51-.55,1.03-1.47,1.57-2.78.54-1.3,1.17-3.23,1.89-5.8s1.55-5.87,2.47-9.91l.27-1.54Z"/>
    <path class="cls-1" d="M581.01,76.36l12.3,4.21c-3.21,4.25-6.86,8.32-10.94,12.22-4.08,3.9-8.31,7.48-12.68,10.73-4.37,3.25-8.69,6.08-12.94,8.47-.6-.89-1.42-1.95-2.47-3.18-1.05-1.23-2.12-2.47-3.2-3.7-1.09-1.23-2.04-2.19-2.88-2.87,6.19-2.88,12.24-6.61,18.15-11.2,5.91-4.59,10.8-9.48,14.66-14.69ZM587.98,92.17l12.15,3.9c-3.3,4.73-7.07,9.23-11.32,13.51-4.25,4.28-8.72,8.17-13.4,11.66-4.69,3.49-9.39,6.54-14.09,9.14-.53-.89-1.3-1.95-2.31-3.19-1.01-1.23-2.05-2.45-3.11-3.65-1.06-1.2-2.03-2.17-2.92-2.93,6.84-3.08,13.37-7.12,19.6-12.12,6.22-5,11.36-10.44,15.41-16.33ZM575.09,40h68.4l-7.48,42.42h-68.4l7.48-42.42ZM573.12,87.86h59.67l-2.1,11.91h-59.67l2.1-11.91ZM608.8,92.89l12.3,3.08c-4.02,7.67-8.82,14.77-14.39,21.31-5.57,6.54-11.33,11.93-17.28,16.18-.62-.75-1.49-1.66-2.6-2.72-1.11-1.06-2.26-2.1-3.45-3.13-1.19-1.03-2.24-1.88-3.14-2.57,5.75-3.49,11.11-8.08,16.09-13.76,4.97-5.68,9.13-11.81,12.48-18.38ZM583.83,66.19l-.94,5.34h41.08l.94-5.34h-41.08ZM586.54,50.78l-.94,5.34h41.08l.94-5.34h-41.08ZM629.82,87.86h13.86c-.3,1.3-.55,2.36-.77,3.18-.21.82-.44,1.51-.67,2.06-2.06,7.4-3.92,13.47-5.58,18.23-1.66,4.76-3.2,8.51-4.6,11.25-1.41,2.74-2.8,4.69-4.16,5.85-1.55,1.44-3.1,2.45-4.64,3.03-1.54.58-3.18.94-4.92,1.08-1.54.21-3.44.32-5.71.36-2.26.03-4.69.01-7.28-.05.23-1.71.24-3.66,0-5.85s-.72-4.07-1.47-5.65c2.09.21,4.02.33,5.79.36,1.77.04,3.1.05,4,.05s1.62-.09,2.2-.26c.58-.17,1.19-.53,1.83-1.08.89-.75,1.92-2.26,3.11-4.52,1.18-2.26,2.49-5.51,3.93-9.76,1.43-4.25,3.01-9.69,4.73-16.33l.34-1.95Z"/>
    <path class="cls-1" d="M697.48,35.58l13.61,3.18c-3.73,7.53-8.02,15.01-12.89,22.44-4.87,7.43-10.33,14.34-16.4,20.75-6.06,6.4-12.75,11.9-20.06,16.48-.5-1.03-1.19-2.19-2.06-3.49s-1.75-2.59-2.66-3.85-1.76-2.34-2.56-3.23c4.96-2.88,9.6-6.3,13.93-10.27,4.33-3.97,8.29-8.3,11.9-12.99,3.6-4.69,6.84-9.5,9.73-14.43,2.89-4.93,5.37-9.79,7.45-14.59ZM678.79,67.63h13.76l-4.85,27.53c-.56,3.15-1.32,6.49-2.28,10.01-.96,3.53-2.23,7.02-3.8,10.48-1.57,3.46-3.51,6.71-5.83,9.76-2.32,3.05-5.12,5.77-8.42,8.17-.38-.96-1.06-2.14-2.04-3.54-.99-1.4-2.01-2.77-3.08-4.11-1.07-1.34-2.02-2.31-2.87-2.93,3.46-2.53,6.15-5.36,8.07-8.48,1.92-3.11,3.34-6.35,4.28-9.71.93-3.35,1.69-6.64,2.25-9.86l4.82-27.32ZM664,47.8h92.13l-2.24,12.74h-92.13l2.25-12.74ZM680.89,101.73h45.4l-1.99,11.3h-45.4l1.99-11.3ZM684.06,84.88h45.19l-1.99,11.3h-45.19l1.99-11.3ZM686.39,67.63h44.47l-2.1,11.91h-44.47l2.1-11.91ZM727.98,67.63h13.25l-8.93,50.64c-.57,3.22-1.4,5.8-2.5,7.75-1.1,1.95-2.84,3.48-5.22,4.57-2.36.96-5.07,1.56-8.12,1.8-3.06.24-6.64.36-10.75.36.05-1.85-.09-4.06-.42-6.63-.34-2.57-.8-4.71-1.38-6.42,1.63.07,3.3.12,5.01.15,1.7.03,3.24.05,4.61.05h2.98c.82,0,1.43-.14,1.82-.41.39-.27.65-.75.77-1.44l8.89-50.43Z"/>
    <path class="cls-1" d="M770.21,39.59h24.65l-2.14,12.12h-12.74l-14.22,80.63h-11.91l16.35-92.75ZM792.5,39.59h2.26l1.92-.41,8.07,4.93c-2.07,4.38-4.29,9-6.66,13.86-2.37,4.86-4.61,9.28-6.75,13.25,2.31,3.97,3.58,7.74,3.81,11.3.23,3.56.07,6.85-.46,9.86-.62,3.49-1.49,6.39-2.61,8.68-1.12,2.29-2.69,4.09-4.7,5.39-.93.62-1.94,1.11-3.04,1.49-1.09.38-2.21.67-3.34.87-.99.14-2.04.22-3.18.26s-2.32.05-3.55.05c.29-1.64.38-3.59.26-5.85-.11-2.26-.47-4.21-1.07-5.86.81.07,1.55.12,2.23.16.68.03,1.3.02,1.86-.05,1.03,0,1.96-.24,2.8-.72.63-.48,1.17-1.23,1.63-2.26s.81-2.26,1.06-3.7c.41-2.33.48-5.08.23-8.27-.26-3.19-1.45-6.52-3.57-10.01,1.08-2.26,2.2-4.74,3.37-7.45,1.16-2.7,2.31-5.43,3.44-8.17s2.17-5.29,3.1-7.65c.93-2.36,1.66-4.29,2.2-5.8l.69-3.9ZM792.14,133.05c-.16-1.03-.45-2.21-.86-3.54-.41-1.34-.88-2.65-1.41-3.95-.52-1.3-1.06-2.33-1.61-3.08,1.23-.75,2.54-1.9,3.95-3.44,1.4-1.54,2.32-3.54,2.76-6.01l12.93-73.33h13.25l-14.31,81.14c-1.84,1.1-3.44,2.07-4.83,2.93-1.38.86-2.82,1.83-4.31,2.93-1.5,1.09-2.75,2.19-3.76,3.29-1.01,1.09-1.61,2.12-1.78,3.08ZM792.14,133.05l.85-11.81,6.08-4.21,22.68-4.52c-.41,1.92-.77,4.08-1.09,6.47-.32,2.4-.51,4.35-.57,5.85-5.22,1.23-9.47,2.28-12.77,3.14-3.3.85-5.94,1.57-7.93,2.16-1.98.58-3.52,1.11-4.59,1.59-1.08.48-1.96.92-2.65,1.34ZM814.15,39.69h40.88l-8.46,47.96h-40.88l2.06-11.71h27.63l4.35-24.65h-27.63l2.05-11.61ZM811.94,58.08h34.1l-1.92,10.89h-34.1l1.92-10.89ZM828.99,80.77c.26,5.89,1.1,11.43,2.51,16.64,1.41,5.21,3.55,9.79,6.41,13.76,2.86,3.97,6.55,7.12,11.07,9.45-1.11.89-2.38,2.02-3.78,3.39-1.41,1.37-2.75,2.79-4.04,4.26-1.29,1.47-2.42,2.82-3.39,4.06-4.87-3.08-8.74-7.05-11.61-11.91-2.88-4.86-4.95-10.48-6.22-16.84s-2.04-13.32-2.28-20.85l11.33-1.95ZM843.64,87.96l7.13,9.65c-2.1,1.44-4.28,2.91-6.53,4.42-2.25,1.51-4.47,2.91-6.65,4.21-2.18,1.3-4.18,2.43-5.99,3.39l-5.6-8.42c1.69-1.03,3.6-2.29,5.75-3.8,2.15-1.51,4.28-3.1,6.39-4.77,2.11-1.68,3.94-3.24,5.5-4.67Z"/>
    <path class="cls-1" d="M895.41,37.84l14.43,4.93c-3.45,5.62-7.39,11.23-11.8,16.84-4.41,5.62-8.95,10.89-13.62,15.82-4.67,4.93-9.18,9.21-13.51,12.84-.71-1.03-1.67-2.29-2.87-3.8-1.21-1.51-2.45-2.98-3.74-4.42-1.29-1.44-2.47-2.6-3.55-3.49,4.17-3.08,8.37-6.69,12.59-10.84,4.22-4.14,8.23-8.61,12.02-13.4,3.79-4.79,7.14-9.62,10.05-14.48ZM865.19,129.46c-.16-1.03-.39-2.43-.7-4.21-.3-1.78-.64-3.63-1.02-5.55s-.79-3.56-1.24-4.93c1.87-.48,3.68-1.37,5.45-2.67,1.77-1.3,3.85-3.08,6.23-5.34,1.36-1.09,3.25-2.91,5.69-5.44,2.43-2.53,5.19-5.58,8.29-9.14s6.22-7.41,9.38-11.56c3.16-4.14,6.07-8.3,8.72-12.48l14.95,6.68c-4.31,5.82-8.97,11.54-13.96,17.15-5,5.62-10.08,10.92-15.24,15.92-5.16,5-10.19,9.52-15.08,13.56l-.05.31c-2.18,1.09-4.02,2.04-5.53,2.82-1.51.79-2.83,1.61-3.98,2.47s-1.78,1.66-1.91,2.42ZM865.19,129.46l1.55-11.71,9.81-4.93,59.23-3.9c-.09,2.06-.03,4.35.17,6.88.2,2.53.41,4.59.61,6.16-9.53.82-17.78,1.52-24.77,2.11-6.98.58-12.92,1.06-17.82,1.44-4.89.37-8.98.73-12.26,1.08-3.28.34-5.93.65-7.97.92-2.04.27-3.71.56-5.03.87s-2.5.67-3.53,1.08ZM915.18,38.15h21.16l-2.48,14.07h-21.16l2.48-14.07ZM916.13,95.67l14.42-6.06c2.14,3.77,4.25,7.8,6.34,12.12,2.08,4.31,4.03,8.53,5.83,12.63s3.25,7.77,4.33,10.99l-15.51,7.6c-.87-3.22-2.15-7-3.85-11.35-1.7-4.35-3.57-8.8-5.61-13.35-2.04-4.55-4.02-8.75-5.95-12.58ZM925.45,38.15h16.02c.63,4.59,1.79,9.14,3.5,13.66,1.7,4.52,3.93,8.7,6.67,12.53,2.75,3.84,6.01,7.06,9.8,9.66-1.2.96-2.61,2.28-4.24,3.95-1.63,1.68-3.22,3.39-4.76,5.14s-2.82,3.34-3.82,4.78c-3.9-3.49-7.32-7.59-10.26-12.28-2.94-4.69-5.34-9.62-7.2-14.79-1.86-5.17-3.25-10.22-4.16-15.15h-2.88l1.32-7.5Z"/>
    <path class="cls-1" d="M975.07,79.44h13.35l-7.57,42.93h-13.35l7.57-42.93ZM973.38,61.05h60.5l-2.08,11.81h-60.49l2.08-11.81ZM975.76,41.74h76.11l-2.28,12.94h-76.11l2.28-12.94ZM987.09,79.44h38.62l-6.27,35.54h-38.62l2.07-11.71h25.26l2.14-12.12h-25.26l2.06-11.71ZM1047.25,41.74h13.97l-13.08,74.15c-.66,3.77-1.6,6.75-2.81,8.93-1.21,2.19-3.05,3.9-5.53,5.14-2.46,1.16-5.4,1.9-8.81,2.21-3.41.31-7.44.43-12.08.36.1-1.37.09-2.95-.04-4.73-.13-1.78-.37-3.58-.69-5.39-.33-1.81-.69-3.34-1.09-4.57,1.83.07,3.7.14,5.61.2,1.9.07,3.63.09,5.18.05,1.55-.03,2.66-.05,3.35-.05.96,0,1.65-.17,2.09-.51.43-.34.74-.99.91-1.95l13.02-73.85Z"/>
  </g>
</svg>